HIERARCHY
ROOT Hips
{
  OFFSET 0 89.5177 0.535
  CHANNELS 6 Xposition Yposition Zposition Zrotation Xrotation Yrotation
  JOINT Spine
  {
    OFFSET 12.0259 -0.162855 1.69034e-005
    CHANNELS 3 Zrotation Xrotation Yrotation
    JOINT Spine1
    {
      OFFSET 15.3169 -0.0121922 0
      CHANNELS 3 Zrotation Xrotation Yrotation
      JOINT Spine2
      {
        OFFSET 15.3176 -0.0121908 0
        CHANNELS 3 Zrotation Xrotation Yrotation
        JOINT Neck
        {
          OFFSET 19.9142 1.56338 0
          CHANNELS 3 Zrotation Xrotation Yrotation
          JOINT Head
          {
            OFFSET 6.92651 0 0
            CHANNELS 3 Zrotation Xrotation Yrotation
            End Site
            {
              OFFSET 20.7666 0 0
            }
          }
          JOINT LeftShoulder
          {
            OFFSET -6.20654 0.708824 7.28219
            CHANNELS 3 Zrotation Xrotation Yrotation
            JOINT LeftArm
            {
              OFFSET 14.108 0 -1.52588e-005
              CHANNELS 3 Zrotation Xrotation Yrotation
              JOINT LeftForeArm
              {
                OFFSET 28.5802 0 0
                CHANNELS 3 Zrotation Xrotation Yrotation
                JOINT LeftHand
                {
                  OFFSET 27.092 0 0
                  CHANNELS 3 Zrotation Xrotation Yrotation
                  End Site
                  {
                    OFFSET 9.55928 -0.186424 0.145352
                  }
                }
              }
            }
          }
          JOINT RightShoulder
          {
            OFFSET -6.20654 0.708866 -7.28218
            CHANNELS 3 Zrotation Xrotation Yrotation
            JOINT RightArm
            {
              OFFSET 14.108 0 1.52588e-005
              CHANNELS 3 Zrotation Xrotation Yrotation
              JOINT RightForeArm
              {
                OFFSET 28.5802 0 0
                CHANNELS 3 Zrotation Xrotation Yrotation
                JOINT RightHand
                {
                  OFFSET 27.092 0 0
                  CHANNELS 3 Zrotation Xrotation Yrotation
                  End Site
                  {
                    OFFSET 9.55929 -0.186417 -0.145354
                  }
                }
              }
            }
          }
        }
      }
    }
  }
  JOINT LeftUpLeg
  {
    OFFSET 0.005 -0.535 8.837
    CHANNELS 3 Zrotation Xrotation Yrotation
    JOINT LeftLeg
    {
      OFFSET 39.9035 0 0
      CHANNELS 3 Zrotation Xrotation Yrotation
      JOINT LeftFoot
      {
        OFFSET 39.6689 0 0
        CHANNELS 3 Zrotation Xrotation Yrotation
        JOINT LeftToe
        {
          OFFSET 10.1624 13.6296 0
          CHANNELS 3 Zrotation Xrotation Yrotation
          End Site
          {
            OFFSET 8.38147 0 0
          }
        }
      }
    }
  }
  JOINT RightUpLeg
  {
    OFFSET 0.005 -0.535 -8.837
    CHANNELS 3 Zrotation Xrotation Yrotation
    JOINT RightLeg
    {
      OFFSET 39.9035 0 0
      CHANNELS 3 Zrotation Xrotation Yrotation
      JOINT RightFoot
      {
        OFFSET 39.6689 0 0
        CHANNELS 3 Zrotation Xrotation Yrotation
        JOINT RightToe
        {
          OFFSET 10.1624 13.6296 0
          CHANNELS 3 Zrotation Xrotation Yrotation
          End Site
          {
            OFFSET 8.38147 0 0
          }
        }
      }
    }
  }
}
MOTION
Frames:	18
Frame Time:	0.0333333
418.903 87.7012 -28.8797 170.543 -80.5032 79.0884 -1.26755 -0.219601 -0.811521 -2.53811 -0.420712 -1.62753 -2.53811 -0.420712 -1.62754 -8.30629e-012 -9.0191e-006 -5.27751e-005 11.6326 10.5217 -4.40044 179.068 -13.7286 -93.9222 4.58452 -49.2919 14.9 -4.03372e-006 0 -2.38542e-015 -40.263 -22.9739 -23.8966 179.348 8.15125 94.5857 62.0089 62.5338 -64.3288 -2.31682 -4.77083e-015 3.18055e-015 -38.4634 21.0512 24.6773 -13.6383 4.59267 -179.37 -24.273 0 -0 21.4985 4.85186 -3.12973 90 -8.38623e-016 -0 -10.521 -4.89059 -178.08 -17.2058 3.97569e-016 5.96354e-016 15.9247 -1.76186 -0.596079 90 6.81017e-017 -1.98785e-016 
418.899 87.7004 -28.8856 170.748 -80.5142 79.2826 -1.27339 -0.221318 -0.812507 -2.54981 -0.424039 -1.62956 -2.54981 -0.424039 -1.62957 -8.30708e-012 -9.0191e-006 -5.27751e-005 11.6939 10.5242 -4.44045 179.057 -13.72 -93.9716 4.69375 -49.4845 14.9786 -4.03372e-006 1.59028e-014 -1.59028e-015 -40.133 -22.8056 -23.6981 179.347 8.13976 94.6029 62.2073 62.572 -64.4956 -2.29104 0 1.59028e-015 -38.4398 21.023 24.7248 -13.6173 4.60987 -179.361 -24.2613 0 7.95139e-016 21.4898 4.83686 -3.11537 90 -2.20527e-015 3.97569e-016 -10.5077 -4.85902 -178.068 -17.1938 7.95139e-016 9.93923e-017 15.9203 -1.76411 -0.591476 90 4.45761e-017 3.97569e-016 
418.889 87.6976 -28.8886 170.861 -80.524 79.3929 -1.27778 -0.221307 -0.811942 -2.55873 -0.431022 -1.62763 -2.55873 -0.431022 -1.62764 -8.30828e-012 -9.0191e-006 -5.27751e-005 11.7582 10.5325 -4.50446 179.055 -13.7239 -93.9783 4.71508 -49.4521 14.9664 -4.03372e-006 3.18055e-015 7.95139e-016 -40.1556 -22.8968 -23.7756 179.346 8.15384 94.5983 62.0725 62.5425 -64.3782 -2.29983 1.59028e-015 -0 -38.459 21.0583 24.7456 -13.6247 4.61621 -179.37 -24.2774 -7.95139e-016 -3.97569e-016 21.4771 4.80686 -3.09633 90 -2.54693e-016 -0 -10.5542 -4.88042 -178.086 -17.2968 -3.97569e-016 -1.98785e-016 15.9696 -1.79668 -0.507927 90 -1.98979e-017 1.98785e-016 
418.89 87.6946 -28.8893 170.978 -80.5446 79.4976 -1.27909 -0.221278 -0.810574 -2.55726 -0.434214 -1.62454 -2.55726 -0.434214 -1.62454 -8.30669e-012 -9.0191e-006 -5.27751e-005 11.7942 10.5719 -4.56146 179.052 -13.7309 -93.986 4.77794 -49.4829 15.0226 -4.03373e-006 0 2.38542e-015 -40.2173 -22.927 -23.8733 179.347 8.17849 94.5814 62.0907 62.5762 -64.4172 -2.28843 -3.18055e-015 -0 -38.4854 21.0437 24.7411 -13.6324 4.71481 -179.33 -24.3554 3.18055e-015 1.59028e-015 21.5991 4.88205 -3.13868 90 -1.13059e-015 3.97569e-016 -10.5353 -4.8525 -178.067 -17.2949 0 1.98785e-016 15.9689 -1.7921 -0.521063 90 -2.66559e-017 -5.96354e-016 
418.894 87.6914 -28.8903 171.057 -80.5609 79.5787 -1.28017 -0.221236 -0.808893 -2.5637 -0.440168 -1.62254 -2.5637 -0.440168 -1.62255 -8.30708e-012 -9.0191e-006 -5.27751e-005 11.8667 10.6548 -4.63373 179.053 -13.7418 -93.98 4.73156 -49.362 14.9716 -4.03373e-006 -1.90833e-014 7.95139e-016 -40.2716 -22.8463 -23.8584 179.348 8.17091 94.575 62.037 62.5593 -64.3698 -2.26751 -1.59028e-015 -0 -38.4495 21.0331 24.7007 -13.6167 4.72876 -179.333 -24.3605 -7.95139e-016 -7.95139e-016 21.6243 4.87404 -3.1003 90 -1.14922e-015 -0 -10.5588 -4.86687 -178.073 -17.3646 3.97569e-016 9.93923e-017 16.0007 -1.80551 -0.489443 90 -4.33143e-017 -1.98785e-016 
418.898 87.6872 -28.8901 171.139 -80.5775 79.6536 -1.28321 -0.221186 -0.806982 -2.56979 -0.441815 -1.61333 -2.56979 -0.441815 -1.61334 -8.30828e-012 -9.0191e-006 -5.27751e-005 11.9837 10.7351 -4.67073 179.055 -13.7469 -93.9698 4.76803 -49.3468 15 -4.03373e-006 3.18055e-015 1.59028e-015 -40.3102 -22.8683 -23.8851 179.347 8.17507 94.583 62.1373 62.5534 -64.4709 -2.26134 3.18055e-015 -1.59028e-015 -38.3951 21.0455 24.7146 -13.6095 4.7339 -179.326 -24.3801 0 -3.97569e-016 21.6432 4.86729 -3.07285 90 1.92573e-016 1.98785e-016 -10.5618 -4.84174 -178.063 -17.3958 -3.97569e-016 -9.93923e-017 16.0145 -1.80581 -0.491961 90 3.89101e-017 -0 
418.898 87.6847 -28.8847 171.144 -80.5845 79.6719 -1.29052 -0.221133 -0.804137 -2.58025 -0.442616 -1.61308 -2.58025 -0.442616 -1.61309 -8.30788e-012 -9.0191e-006 -5.27751e-005 12.0988 10.7805 -4.70587 179.058 -13.7668 -93.9513 4.75694 -49.357 15.0116 -4.03373e-006 -3.18055e-015 -7.95139e-016 -40.2597 -22.8395 -23.8252 179.352 8.18785 94.5411 62.0871 62.5713 -64.4227 -2.25186 0 -0 -38.4585 21.0661 24.7729 -13.579 4.6365 -179.369 -24.3164 0 -7.95139e-016 21.5651 4.78173 -2.96954 90 1.70209e-015 -3.97569e-016 -10.6077 -4.87424 -178.086 -17.4863 -3.97569e-016 -9.93923e-017 16.0528 -1.82682 -0.45614 90 1.33947e-017 1.98785e-016 
418.91 87.6824 -28.875 171.249 -80.5711 79.7557 -1.29528 -0.221083 -0.798267 -2.59395 -0.442829 -1.60138 -2.59395 -0.442829 -1.60139 -8.30828e-012 -9.0191e-006 -5.27751e-005 12.1735 10.7895 -4.70317 179.054 -13.7734 -93.9687 4.81995 -49.2521 15.0685 -4.03373e-006 -3.18055e-015 -7.95139e-016 -40.2863 -22.8056 -23.7893 179.356 8.20622 94.5026 61.9692 62.577 -64.3452 -2.20369 -1.59028e-015 1.59028e-015 -38.4428 21.0636 24.7468 -13.622 4.68222 -179.328 -24.3798 -7.95139e-016 3.97569e-016 21.6616 4.82602 -2.97527 90 -7.45443e-017 -3.97569e-016 -10.6126 -4.82653 -178.049 -17.4561 -3.97569e-016 -1.98785e-016 16.0326 -1.80716 -0.491295 90 -8.4202e-018 1.98785e-016 
418.916 87.6801 -28.8653 171.271 -80.564 79.7844 -1.29526 -0.221041 -0.793846 -2.60364 -0.441846 -1.59254 -2.60364 -0.441846 -1.59255 -8.30748e-012 -9.0191e-006 -5.27751e-005 12.2456 10.7436 -4.73853 179.062 -13.7618 -93.9355 4.87764 -49.2304 15.0766 -4.03373e-006 9.54166e-015 -7.95139e-016 -40.1951 -22.8818 -23.7512 179.358 8.20523 94.4872 61.9708 62.5649 -64.3426 -2.20926 1.59028e-015 -0 -38.445 21.1112 24.7728 -13.6155 4.62068 -179.353 -24.3272 7.95139e-016 3.97569e-016 21.5739 4.74174 -2.89846 90 -7.45443e-017 -0 -10.6739 -4.84242 -178.061 -17.5484 0 9.93923e-017 16.0715 -1.82293 -0.445577 90 -6.63182e-017 -3.97569e-016 
418.93 87.678 -28.8613 171.436 -80.5886 79.9338 -1.29522 -0.221012 -0.785972 -2.60449 -0.427836 -1.57664 -2.60449 -0.427836 -1.57665 -8.30748e-012 -9.0191e-006 -5.27751e-005 12.3205 10.6673 -4.72655 179.072 -13.7577 -93.8984 4.84583 -49.1851 15.0143 -4.03374e-006 3.18055e-015 -7.95139e-016 -40.2379 -22.7883 -23.7914 179.361 8.1969 94.475 62.0477 62.5556 -64.3945 -2.21843 1.59028e-015 3.18055e-015 -38.4351 21.106 24.7951 -13.6152 4.67445 -179.313 -24.3887 -2.38542e-015 -7.95139e-016 21.6782 4.79718 -2.91791 90 -4.65902e-016 -1.98785e-016 -10.658 -4.812 -178.03 -17.5447 -3.97569e-016 -1.98785e-016 16.0623 -1.81032 -0.466839 90 5.28264e-017 1.98785e-016 
418.937 87.6763 -28.8561 171.544 -80.5998 80.0291 -1.29516 -0.221002 -0.781349 -2.60316 -0.423735 -1.56734 -2.60316 -0.423734 -1.56735 -8.30708e-012 -9.0191e-006 -5.27751e-005 12.4077 10.5881 -4.68082 179.075 -13.7578 -93.8829 4.72021 -48.8631 14.8784 -4.03374e-006 3.18055e-015 -7.95139e-016 -40.086 -22.7098 -23.6261 179.367 8.20323 94.4299 62.0194 62.5217 -64.3788 -2.26234 1.59028e-015 1.59028e-015 -38.4551 21.0885 24.7814 -13.6599 4.76667 -179.271 -24.4844 -3.18055e-015 -0 21.7483 4.85381 -3.0028 90 2.98177e-016 -1.98785e-016 -10.6818 -4.81449 -178.02 -17.6002 -7.95139e-016 -1.98785e-016 16.0843 -1.83401 -0.418212 90 6.72403e-017 -3.97569e-016 
418.945 87.6766 -28.8547 171.514 -80.5808 80.0086 -1.29508 -0.221012 -0.780033 -2.60694 -0.424935 -1.57254 -2.60694 -0.424935 -1.57255 -8.30708e-012 -9.0191e-006 -5.27751e-005 12.5155 10.4759 -4.62429 179.085 -13.7909 -93.8319 4.48984 -48.6356 14.6624 -4.03374e-006 6.36111e-015 2.38542e-015 -40.143 -22.6651 -23.6643 179.374 8.20335 94.3813 61.9277 62.4117 -64.2745 -2.34815 1.59028e-015 1.59028e-015 -38.4838 21.2008 24.8588 -13.6139 4.57638 -179.327 -24.3269 0 -0 21.5616 4.68431 -2.82331 90 -1.49089e-016 1.98785e-016 -10.7413 -4.85151 -178.033 -17.6654 7.95139e-016 -0 16.1079 -1.84835 -0.38245 90 -2.29796e-017 -0 
418.954 87.6672 -28.852 171.527 -80.6216 79.9945 -1.29496 -0.221047 -0.779106 -2.59111 -0.409151 -1.56267 -2.59111 -0.409151 -1.56268 -8.30748e-012 -9.0191e-006 -5.27751e-005 12.6076 10.2861 -4.54321 179.088 -13.8004 -93.8187 4.47904 -48.7376 14.6407 -4.03374e-006 6.36111e-015 -7.95139e-016 -40.1501 -22.5735 -23.6109 179.383 8.1935 94.3247 61.6942 62.3167 -63.9914 -2.31381 0 3.18055e-015 -38.4748 21.2309 24.8426 -13.6934 4.79311 -179.233 -24.5892 7.95139e-016 3.97569e-016 21.8182 4.86787 -3.0278 90 -1.12438e-015 1.98785e-016 -10.7466 -4.87809 -178.012 -17.7679 -3.97569e-016 -9.93923e-017 16.1623 -1.87145 -0.329111 90 -3.40205e-017 -1.98785e-016 
418.965 87.6669 -28.8519 171.442 -80.6242 79.8947 -1.29477 -0.221114 -0.776823 -2.59208 -0.406121 -1.55807 -2.59208 -0.406121 -1.55808 -8.30748e-012 -9.0191e-006 -5.27751e-005 12.7737 10.116 -4.54007 179.085 -13.7927 -93.8309 4.58501 -48.8434 14.7146 -4.03374e-006 3.18055e-015 -2.38542e-015 -40.2392 -22.5098 -23.589 179.393 8.13384 94.2857 61.8223 62.3075 -64.0057 -2.17613 -1.59028e-015 -0 -38.4991 21.1802 24.9254 -13.678 4.71303 -179.229 -24.5588 -7.95139e-016 -0 21.7638 4.8082 -2.98165 90 1.42255e-015 -0 -10.6872 -4.84465 -177.976 -17.6674 3.97569e-016 9.93923e-017 16.1158 -1.84162 -0.415962 90 -6.52748e-018 3.97569e-016 
418.972 87.6661 -28.8591 171.346 -80.6386 79.7943 -1.2944 -0.22122 -0.773613 -2.59172 -0.409278 -1.55406 -2.59172 -0.409278 -1.55407 -8.30708e-012 -9.0191e-006 -5.27751e-005 12.9626 9.9621 -4.56919 179.084 -13.8038 -93.8329 4.59411 -48.8554 14.7303 -4.03375e-006 0 7.95139e-016 -40.229 -22.5189 -23.5731 179.398 8.17181 94.228 61.4672 62.2031 -63.6887 -2.16106 0 1.59028e-015 -38.5375 21.3368 25.0691 -13.6591 4.70753 -179.218 -24.5642 0 7.95139e-016 21.7684 4.81087 -2.99372 90 4.16205e-016 -0 -10.6696 -4.86718 -177.969 -17.6771 3.97569e-016 9.93923e-017 16.1255 -1.84499 -0.406352 90 -7.95673e-017 -0 
418.972 87.6653 -28.8663 171.211 -80.6554 79.6563 -1.29379 -0.221371 -0.770291 -2.59099 -0.42239 -1.54948 -2.59099 -0.422389 -1.54949 -8.30788e-012 -9.0191e-006 -5.27751e-005 13.212 9.85997 -4.64816 179.084 -13.7858 -93.8369 4.64775 -48.8212 14.752 -4.03375e-006 -3.18055e-015 7.95139e-016 -40.198 -22.5846 -23.6487 179.399 8.19188 94.2116 61.588 62.1992 -63.8218 -2.13587 1.59028e-015 -0 -38.4672 21.3515 25.0446 -13.6426 4.68791 -179.22 -24.5743 7.95139e-016 3.97569e-016 21.7643 4.80843 -3.0057 90 7.88927e-016 -3.97569e-016 -10.6312 -4.87222 -177.972 -17.6571 -3.97569e-016 1.98785e-016 16.1239 -1.83791 -0.41379 90 -1.36567e-016 5.96354e-016 
418.969 87.6643 -28.8686 171.117 -80.6521 79.5592 -1.29308 -0.221574 -0.767952 -2.58973 -0.431082 -1.5406 -2.58973 -0.431081 -1.54061 -8.30708e-012 -9.0191e-006 -5.27751e-005 13.4325 9.74774 -4.74628 179.086 -13.7887 -93.8283 4.69133 -48.802 14.805 -4.03375e-006 0 -1.59028e-015 -40.1836 -22.6709 -23.697 179.402 8.20833 94.1841 61.5581 62.2065 -63.8044 -2.10653 4.77083e-015 -0 -38.5087 21.3217 25.0246 -13.6314 4.64967 -179.219 -24.5617 0 -7.95139e-016 21.7382 4.79539 -3.01083 90 -9.31803e-016 -1.98785e-016 -10.6023 -4.86721 -177.955 -17.6056 0 4.96962e-016 16.1019 -1.81713 -0.472073 90 9.71842e-017 -3.97569e-016 
418.957 87.6632 -28.871 171.263 -80.6568 79.7053 -1.29237 -0.221836 -0.76681 -2.58803 -0.426007 -1.53732 -2.58803 -0.426007 -1.53733 -8.30867e-012 -9.0191e-006 -5.27751e-005 13.565 9.68067 -4.74172 179.09 -13.8181 -93.803 4.68843 -48.782 14.8409 -4.03376e-006 -6.36111e-015 -0 -40.1314 -22.7605 -23.7401 179.402 8.19989 94.182 61.5235 62.1863 -63.7476 -2.11919 4.77083e-015 1.59028e-015 -38.5028 21.3691 25.0686 -13.6194 4.63135 -179.24 -24.546 -1.59028e-015 -7.95139e-016 21.7193 4.76205 -2.9746 90 4.5969e-016 1.98785e-016 -10.5993 -4.8472 -177.968 -17.6075 3.97569e-016 1.98785e-016 16.1061 -1.81523 -0.460109 90 1.388e-017 -0 
